<svg xmlns="http://www.w3.org/2000/svg" xmlns:xlink="http://www.w3.org/1999/xlink" width="403.031" height="55.959" viewBox="0 0 403.031 55.959"><defs><style>.a{fill:none;}.b{clip-path:url(#a);}.c{fill:#fff;}</style><clipPath id="a"><path class="a" d="M0,21.789H403.031V-34.17H0Z" transform="translate(0 34.17)"/></clipPath></defs><g transform="translate(0 34.17)"><g class="b" transform="translate(0 -34.17)"><g transform="translate(0 0.295)"><path class="c" d="M0,2.411,8.565-2.758H19.383v3.7c9.8-8.626,21.255-3.719,23.934,1.166-4.612,1-8.278,5.042-8.278,5.042C28.5-1.981,15.07,1.378,10.841,6.045c0-1.733-.007-3.634-.007-3.634Z" transform="translate(0 3.781)"/></g><g transform="translate(45.153 0.279)"><path class="c" d="M0,2.147c2.581-5.4,12.143-5.514,12.143-5.514,10.736.151,13.583,6.911,13.583,6.911a15.188,15.188,0,0,0-7.63,7.021,13.526,13.526,0,0,0-7.2-7.438A21.438,21.438,0,0,0,0,2.147" transform="translate(0 3.367)"/></g><g transform="translate(10.921 15.694)"><path class="c" d="M.006,15l8.54-6s.028-24.349.028-26.022a21.528,21.528,0,0,1,1.264-6.506c-8.606.2-10.094,7.8-9.816,13.843C.017-8.828.006,15,.006,15" transform="translate(0.009 23.524)"/></g><g transform="translate(37.725 15.694)"><path class="c" d="M.008,15,8.543,9s.028-24.349.028-26.022a22.023,22.023,0,0,1,1.263-6.506c-8.6.2-10.088,7.8-9.816,13.843C.017-8.828.008,15,.008,15" transform="translate(0.012 23.524)"/></g><g transform="translate(64.666 50.144)"><path class="c" d="M0,0A10.282,10.282,0,0,0,2.481,2.381L0,4.155Z"/></g><g transform="translate(64.669 28.807)"><path class="c" d="M0,3.149.008-4.939C4.025-.511,13.331.768,15.324,1.531c.933,6.4,10.07,5.807,10.07,5.807-.257,5.489-9.76,5.249-10.709,5.052C7.641,11.744,6.67,8.3,6.294,3.146L0,3.149" transform="translate(0 4.939)"/></g><g transform="translate(72.818 0.237)"><path class="c" d="M5.945.015a32.682,32.682,0,0,1,6.377.465,17.638,17.638,0,0,1,7.627,3.172,16.544,16.544,0,0,1,3.077,2.994,14.824,14.824,0,0,1,2.941,9.8c-1.272.9-6.215,4.526-7.89,5.692,6.962,2.24,9.32,7.216,9.32,12.092,0,6.675-5.036,14.28-14.377,17.477a15.958,15.958,0,0,0,5.91-12.277c0-3.686-.963-7.654-5.278-10.466-4.9-2.881-10.987-3.65-16.627-5.193C-4,23.532-9.323,22.386-9.323,19.081-9.2,14.666-2.794,14.8-.56,15.013c.218.365.775,2.569,6.8,3.758a12.684,12.684,0,0,1,.762,3.672H17.387c0-.514-.013-.932.036-1.631a14.678,14.678,0,0,0-3.837-10.063C6.651,2.9-5.943,5.208-8.34,5.886-4.946,1.723,1.44-.011,5.945.015" transform="translate(9.323 0.024)"/></g><g transform="translate(119.342 42.491)"><path class="c" d="M0,.08H1.557V1.4a5.238,5.238,0,0,1,1.01-1A3.027,3.027,0,0,1,4.337-.126a2.785,2.785,0,0,1,1.8.544,2.927,2.927,0,0,1,.7.927A3.3,3.3,0,0,1,8.072.239a3.405,3.405,0,0,1,1.59-.365,2.6,2.6,0,0,1,2.569,1.359A4.43,4.43,0,0,1,12.6,3.2V9.4H10.966V2.928a1.5,1.5,0,0,0-.475-1.284A1.852,1.852,0,0,0,9.354,1.3a2.288,2.288,0,0,0-1.6.621,2.705,2.705,0,0,0-.665,2.06V9.4h-1.6V3.321a3.136,3.136,0,0,0-.228-1.384,1.383,1.383,0,0,0-1.34-.653A2.33,2.33,0,0,0,2.3,1.972a3.347,3.347,0,0,0-.729,2.484V9.4H0Z" transform="translate(0 0.126)"/></g><g transform="translate(134.317 42.473)"><path class="c" d="M.835,3.167a1.884,1.884,0,0,0,1.182.395,3.667,3.667,0,0,0,1.607-.386A2.15,2.15,0,0,0,4.931,1.1V-.17a2.552,2.552,0,0,1-.743.31A6.188,6.188,0,0,1,3.3.313L2.35.432A3.632,3.632,0,0,0,1.06.794a1.387,1.387,0,0,0-.725,1.3,1.3,1.3,0,0,0,.5,1.074M4.148-1.069a.856.856,0,0,0,.725-.449,1.432,1.432,0,0,0,.1-.6A1.258,1.258,0,0,0,4.4-3.279a3.04,3.04,0,0,0-1.638-.367,2.085,2.085,0,0,0-1.749.663A2.129,2.129,0,0,0,.644-1.895H-.827A2.673,2.673,0,0,1,.29-4.282,4.573,4.573,0,0,1,2.8-4.967a5.142,5.142,0,0,1,2.686.622,2.131,2.131,0,0,1,1.022,1.95V2.977a.71.71,0,0,0,.1.393.5.5,0,0,0,.426.144c.07,0,.147,0,.237-.008s.177-.026.28-.043V4.618a5,5,0,0,1-.558.134,4.94,4.94,0,0,1-.529.023A1.3,1.3,0,0,1,5.282,4.2a2.284,2.284,0,0,1-.269-.858A3.935,3.935,0,0,1,3.632,4.423a4.239,4.239,0,0,1-1.988.463,3.011,3.011,0,0,1-2.131-.78,2.631,2.631,0,0,1-.824-1.98A2.543,2.543,0,0,1-.493.12,3.9,3.9,0,0,1,1.636-.758Z" transform="translate(1.31 4.967)"/></g><g transform="translate(145.212 42.491)"><path class="c" d="M0,.08H1.5V1.4A4.206,4.206,0,0,1,2.9.229,3.756,3.756,0,0,1,4.554-.126,2.728,2.728,0,0,1,7.247,1.258a4.864,4.864,0,0,1,.386,2.167V9.4h-1.6V3.531a3.144,3.144,0,0,0-.254-1.377,1.537,1.537,0,0,0-1.52-.87,3.111,3.111,0,0,0-.919.113A2.4,2.4,0,0,0,2.2,2.162a2.36,2.36,0,0,0-.516.956,6.81,6.81,0,0,0-.113,1.4V9.4H0Z" transform="translate(0 0.126)"/></g><g transform="translate(155.635 42.697)"><path class="c" d="M.625,0V6.184A2.593,2.593,0,0,0,.851,7.35a1.587,1.587,0,0,0,1.567.834A2.2,2.2,0,0,0,4.654,6.727a5.771,5.771,0,0,0,.326-2.155V0H6.553V9.32H5.063l.021-1.374a3.37,3.37,0,0,1-.758.9,3.4,3.4,0,0,1-2.188.722A2.814,2.814,0,0,1-.587,8.241,3.949,3.949,0,0,1-.98,6.334V0Z" transform="translate(0.98)"/></g><g transform="translate(165.21 39.056)"><path class="c" d="M.641.311a2.419,2.419,0,0,1,2.122-.8c.095,0,.2,0,.3.008s.228.015.362.023V.972c-.162-.011-.285-.02-.362-.02s-.134,0-.2,0c-.48,0-.76.126-.855.373A7.183,7.183,0,0,0,1.873,3.2H3.43v1.24H1.855v8.034H.3V4.439H-1.006V3.2H.3V1.739A2.79,2.79,0,0,1,.641.311" transform="translate(1.006 0.487)"/></g><g transform="translate(171.155 42.473)"><path class="c" d="M.835,3.167a1.886,1.886,0,0,0,1.181.395,3.648,3.648,0,0,0,1.608-.386A2.145,2.145,0,0,0,4.932,1.1V-.17a2.579,2.579,0,0,1-.742.31A6.04,6.04,0,0,1,3.3.313L2.35.432A3.653,3.653,0,0,0,1.061.794a1.387,1.387,0,0,0-.722,1.3,1.3,1.3,0,0,0,.5,1.074m3.31-4.237a.857.857,0,0,0,.73-.449,1.385,1.385,0,0,0,.1-.6A1.255,1.255,0,0,0,4.4-3.279a3.024,3.024,0,0,0-1.634-.367,2.084,2.084,0,0,0-1.751.663A2.19,2.19,0,0,0,.64-1.895H-.826A2.679,2.679,0,0,1,.289-4.282,4.593,4.593,0,0,1,2.8-4.967a5.138,5.138,0,0,1,2.682.622,2.124,2.124,0,0,1,1.02,1.95V2.977a.7.7,0,0,0,.1.393.5.5,0,0,0,.424.144c.075,0,.152,0,.241-.008s.179-.026.277-.043V4.618a5.152,5.152,0,0,1-.554.134,4.974,4.974,0,0,1-.531.023A1.286,1.286,0,0,1,5.287,4.2a2.166,2.166,0,0,1-.275-.858A3.921,3.921,0,0,1,3.635,4.423a4.243,4.243,0,0,1-1.988.463,3.008,3.008,0,0,1-2.134-.78,2.654,2.654,0,0,1-.822-1.98A2.553,2.553,0,0,1-.493.12,3.893,3.893,0,0,1,1.639-.758Z" transform="translate(1.309 4.967)"/></g><g transform="translate(181.412 42.43)"><path class="c" d="M2.654.3a3.643,3.643,0,0,1,1.2,2.632H2.325a2.778,2.778,0,0,0-.642-1.421A1.988,1.988,0,0,0,.088.935,2.211,2.211,0,0,0-2.066,2.395a5.817,5.817,0,0,0-.418,2.339,4.391,4.391,0,0,0,.593,2.358,2.044,2.044,0,0,0,1.87.958,2.061,2.061,0,0,0,1.549-.591,3.385,3.385,0,0,0,.8-1.634h1.53A4.075,4.075,0,0,1,2.538,8.536a4.11,4.11,0,0,1-2.681.855A3.611,3.611,0,0,1-3.071,8.056,5.128,5.128,0,0,1-4.162,4.717,5.6,5.6,0,0,1-2.967.9,3.885,3.885,0,0,1,.088-.468,4.069,4.069,0,0,1,2.654.3" transform="translate(4.162 0.468)"/></g><g transform="translate(190.547 40.099)"><path class="c" d="M.493,0h1.6V2.6H3.58V3.883H2.088V9.955a.653.653,0,0,0,.329.658,1.368,1.368,0,0,0,.611.1h.249l.3-.028v1.235a4.034,4.034,0,0,1-.567.113,4.468,4.468,0,0,1-.629.034,1.719,1.719,0,0,1-1.5-.558,2.48,2.48,0,0,1-.395-1.458V3.883H-.773V2.6H.493Z" transform="translate(0.773)"/></g><g transform="translate(196.939 42.697)"><path class="c" d="M.625,0V6.184A2.485,2.485,0,0,0,.854,7.35a1.579,1.579,0,0,0,1.559.834,2.2,2.2,0,0,0,2.24-1.456,5.7,5.7,0,0,0,.328-2.155V0H6.553V9.32H5.066l.018-1.374a3.322,3.322,0,0,1-.762.9,3.383,3.383,0,0,1-2.181.722A2.824,2.824,0,0,1-.592,8.241,3.99,3.99,0,0,1-.98,6.334V0Z" transform="translate(0.98)"/></g><g transform="translate(207.472 42.491)"><path class="c" d="M0,.08H1.494V1.692a3.5,3.5,0,0,1,.9-1.138,2.321,2.321,0,0,1,1.652-.68c.028,0,.079,0,.149.007s.185.016.36.043V1.571c-.095-.016-.187-.026-.262-.036s-.165-.007-.259-.007a2.255,2.255,0,0,0-1.824.763,2.626,2.626,0,0,0-.637,1.751V9.4H0Z" transform="translate(0 0.126)"/></g></g><path class="c" d="M130.6-8.435h1.6V-10.21h-1.6Zm0-1.775,0,12.777h1.6V-6.707h-1.6Z" transform="translate(83.28 15.278)"/><g class="b" transform="translate(0 -34.17)"><g transform="translate(218.367 42.491)"><path class="c" d="M0,.08H1.49V1.4A4.184,4.184,0,0,1,2.9.229,3.726,3.726,0,0,1,4.548-.126a2.732,2.732,0,0,1,2.7,1.384A4.864,4.864,0,0,1,7.63,3.424V9.4h-1.6V3.531a3.094,3.094,0,0,0-.257-1.377,1.529,1.529,0,0,0-1.518-.87,3.1,3.1,0,0,0-.917.113A2.36,2.36,0,0,0,2.2,2.162a2.2,2.2,0,0,0-.517.956,6.382,6.382,0,0,0-.121,1.4V9.4H0Z" transform="translate(0 0.126)"/></g><g transform="translate(228.199 42.54)"><path class="c" d="M2.275.207a4.44,4.44,0,0,1,.914.891V-.077H4.635v8.47a6.27,6.27,0,0,1-.519,2.8,3.787,3.787,0,0,1-3.7,1.9,4.5,4.5,0,0,1-2.54-.68,2.61,2.61,0,0,1-1.159-2.108h1.6a1.746,1.746,0,0,0,.452.966,2.306,2.306,0,0,0,1.682.516,2.3,2.3,0,0,0,2.366-1.263,7.03,7.03,0,0,0,.306-2.674A2.993,2.993,0,0,1,1.987,8.914a3.745,3.745,0,0,1-1.756.35A3.789,3.789,0,0,1-2.436,8.2,4.732,4.732,0,0,1-3.568,4.632,5.4,5.4,0,0,1-2.428.986,3.567,3.567,0,0,1,.353-.324,3.417,3.417,0,0,1,2.275.207m.2,1.68A2.317,2.317,0,0,0,.642,1.053,2.266,2.266,0,0,0-1.636,2.6a6.048,6.048,0,0,0-.316,2.165,3.825,3.825,0,0,0,.64,2.4,2.052,2.052,0,0,0,1.726.82A2.425,2.425,0,0,0,2.8,6.464a4.9,4.9,0,0,0,.386-2,3.93,3.93,0,0,0-.716-2.574" transform="translate(3.568 0.324)"/></g><g transform="translate(245.598 42.43)"><path class="c" d="M2.655.3a3.63,3.63,0,0,1,1.2,2.632H2.327a2.834,2.834,0,0,0-.644-1.421A1.99,1.99,0,0,0,.087.935,2.212,2.212,0,0,0-2.065,2.395a5.817,5.817,0,0,0-.418,2.339A4.377,4.377,0,0,0-1.89,7.091a2.046,2.046,0,0,0,1.873.958,2.058,2.058,0,0,0,1.546-.591,3.358,3.358,0,0,0,.8-1.634H3.853A4.065,4.065,0,0,1,2.542,8.536a4.124,4.124,0,0,1-2.682.855A3.63,3.63,0,0,1-3.074,8.056,5.154,5.154,0,0,1-4.163,4.717,5.63,5.63,0,0,1-2.964.9,3.874,3.874,0,0,1,.087-.468,4.083,4.083,0,0,1,2.655.3" transform="translate(4.163 0.468)"/></g><g transform="translate(255.048 42.429)"><path class="c" d="M2.527,2.882A5.784,5.784,0,0,0,3.121.255a4.541,4.541,0,0,0-.427-2.121A2.351,2.351,0,0,0,.406-3.153a2.261,2.261,0,0,0-2.1,1.1A5.03,5.03,0,0,0-2.347.589,4.365,4.365,0,0,0-1.69,3.063a2.314,2.314,0,0,0,2.08,1A2.15,2.15,0,0,0,2.527,2.882m.984-6.2A4.673,4.673,0,0,1,4.766.215,5.965,5.965,0,0,1,3.659,3.933,3.983,3.983,0,0,1,.244,5.407a3.882,3.882,0,0,1-3.074-1.3A5.157,5.157,0,0,1-3.963.612a5.544,5.544,0,0,1,1.2-3.744A4.029,4.029,0,0,1,.446-4.519a4.251,4.251,0,0,1,3.066,1.2" transform="translate(3.963 4.519)"/></g><g transform="translate(266.185 42.491)"><path class="c" d="M0,.08H1.494V1.692A3.669,3.669,0,0,1,2.4.554a2.335,2.335,0,0,1,1.649-.68c.028,0,.082,0,.156.007s.188.016.352.043V1.571c-.085-.016-.175-.026-.259-.036s-.162-.007-.257-.007a2.25,2.25,0,0,0-1.823.763,2.627,2.627,0,0,0-.639,1.751V9.4H0Z" transform="translate(0 0.126)"/></g><g transform="translate(272.478 42.473)"><path class="c" d="M2.3,2.949A4.348,4.348,0,0,0,3.029.2a5.119,5.119,0,0,0-.318-1.9A2.238,2.238,0,0,0,.474-3.248,2.232,2.232,0,0,0-1.772-1.62a6.48,6.48,0,0,0-.321,2.2,4.8,4.8,0,0,0,.321,1.841A2.245,2.245,0,0,0,.474,3.865,2.252,2.252,0,0,0,2.3,2.949m-5.9-7.3h1.531v1.238A3.629,3.629,0,0,1-1.039-4.1,3.314,3.314,0,0,1,.828-4.625a3.522,3.522,0,0,1,2.7,1.217A4.919,4.919,0,0,1,4.637.059q0,3.041-1.6,4.35a3.651,3.651,0,0,1-2.357.82,3.153,3.153,0,0,1-1.775-.463,4.033,4.033,0,0,1-.942-.889V8.635H-3.605Z" transform="translate(3.605 4.625)"/></g><g transform="translate(282.416 42.429)"><path class="c" d="M2.53,2.882A5.824,5.824,0,0,0,3.119.255,4.65,4.65,0,0,0,2.7-1.866,2.365,2.365,0,0,0,.406-3.153a2.268,2.268,0,0,0-2.1,1.1A5.108,5.108,0,0,0-2.351.589a4.43,4.43,0,0,0,.657,2.474,2.325,2.325,0,0,0,2.083,1A2.159,2.159,0,0,0,2.53,2.882m.981-6.2A4.691,4.691,0,0,1,4.762.215,6.016,6.016,0,0,1,3.656,3.933,3.979,3.979,0,0,1,.238,5.407a3.861,3.861,0,0,1-3.064-1.3A5.144,5.144,0,0,1-3.967.612a5.537,5.537,0,0,1,1.2-3.744A4.025,4.025,0,0,1,.448-4.519a4.244,4.244,0,0,1,3.062,1.2" transform="translate(3.967 4.519)"/></g><g transform="translate(293.558 42.491)"><path class="c" d="M0,.08H1.5V1.692A3.448,3.448,0,0,1,2.4.554a2.324,2.324,0,0,1,1.649-.68c.031,0,.077,0,.147.007s.195.016.362.043V1.571c-.088-.016-.183-.026-.265-.036s-.162-.007-.249-.007a2.251,2.251,0,0,0-1.828.763,2.622,2.622,0,0,0-.642,1.751V9.4H0Z" transform="translate(0 0.126)"/></g><g transform="translate(299.531 42.473)"><path class="c" d="M.833,3.167a1.9,1.9,0,0,0,1.184.395,3.656,3.656,0,0,0,1.611-.386A2.153,2.153,0,0,0,4.944,1.1V-.17a2.811,2.811,0,0,1-.75.31A6.145,6.145,0,0,1,3.3.313l-.951.12A3.664,3.664,0,0,0,1.064.794a1.385,1.385,0,0,0-.724,1.3A1.293,1.293,0,0,0,.833,3.167M4.156-1.069a.863.863,0,0,0,.725-.449,1.376,1.376,0,0,0,.106-.6,1.27,1.27,0,0,0-.583-1.159,3.013,3.013,0,0,0-1.629-.367,2.078,2.078,0,0,0-1.751.663A2.1,2.1,0,0,0,.642-1.895H-.822A2.673,2.673,0,0,1,.295-4.282a4.586,4.586,0,0,1,2.514-.685,5.09,5.09,0,0,1,2.674.622,2.123,2.123,0,0,1,1.032,1.95V2.977a.739.739,0,0,0,.093.393.5.5,0,0,0,.426.144c.077,0,.156,0,.241-.008s.179-.026.278-.043V4.618a4.913,4.913,0,0,1-.558.134,4.891,4.891,0,0,1-.522.023A1.3,1.3,0,0,1,5.288,4.2a2.28,2.28,0,0,1-.272-.858A3.957,3.957,0,0,1,3.634,4.423a4.213,4.213,0,0,1-1.986.463,2.982,2.982,0,0,1-2.126-.78,2.636,2.636,0,0,1-.829-1.98A2.54,2.54,0,0,1-.487.12,3.872,3.872,0,0,1,1.644-.758Z" transform="translate(1.307 4.967)"/></g><g transform="translate(309.477 40.099)"><path class="c" d="M.492,0H2.081V2.6h1.5V3.883h-1.5V9.955a.66.66,0,0,0,.337.658,1.347,1.347,0,0,0,.608.1H3.27l.308-.028v1.235a3.988,3.988,0,0,1-.57.113,4.371,4.371,0,0,1-.629.034,1.724,1.724,0,0,1-1.494-.558,2.492,2.492,0,0,1-.393-1.458V3.883H-.772V2.6H.492Z" transform="translate(0.772)"/></g></g><path class="c" d="M192.9-8.435h1.6V-10.21h-1.6Zm0-1.775,0,12.777h1.6V-6.707h-1.6Z" transform="translate(123 15.278)"/><g class="b" transform="translate(0 -34.17)"><g transform="translate(319.734 42.429)"><path class="c" d="M2.53,2.882A5.8,5.8,0,0,0,3.118.255,4.675,4.675,0,0,0,2.7-1.866,2.369,2.369,0,0,0,.4-3.153a2.256,2.256,0,0,0-2.1,1.1A5.06,5.06,0,0,0-2.347.589a4.39,4.39,0,0,0,.655,2.474,2.315,2.315,0,0,0,2.081,1A2.164,2.164,0,0,0,2.53,2.882m.979-6.2A4.665,4.665,0,0,1,4.759.215a6.014,6.014,0,0,1-1.1,3.717A3.99,3.99,0,0,1,.237,5.407a3.879,3.879,0,0,1-3.071-1.3A5.158,5.158,0,0,1-3.968.612a5.585,5.585,0,0,1,1.2-3.744A4.053,4.053,0,0,1,.454-4.519a4.236,4.236,0,0,1,3.056,1.2" transform="translate(3.968 4.519)"/></g><g transform="translate(330.831 42.491)"><path class="c" d="M0,.08H1.49V1.4A4.217,4.217,0,0,1,2.9.229,3.751,3.751,0,0,1,4.554-.126,2.739,2.739,0,0,1,7.248,1.258,4.942,4.942,0,0,1,7.63,3.424V9.4h-1.6V3.531a3.146,3.146,0,0,0-.252-1.377,1.533,1.533,0,0,0-1.518-.87,3.072,3.072,0,0,0-.915.113,2.382,2.382,0,0,0-1.14.765,2.525,2.525,0,0,0-.522.956,6.922,6.922,0,0,0-.1,1.4V9.4H0Z" transform="translate(0 0.126)"/></g><g transform="translate(119.342 8.604)"><path class="c" d="M0,9.968H9.932V-2.338c0-2.99.572-5.507,3.487-5.507,2.62,0,3.338,1.469,3.338,5.129V9.968h9.932V-2.338c0-2.99.572-5.507,3.485-5.507,2.627,0,3.341,1.469,3.341,5.129V9.968h9.929V-4.758c0-6.795-2.293-10.874-9.6-10.874a10.092,10.092,0,0,0-8.639,4.556c-1.194-2.661-3.678-4.556-8.164-4.556A10.254,10.254,0,0,0,9.12-11.22v-3.7H0Z" transform="translate(0 15.632)"/></g><g transform="translate(164.841 8.604)"><path class="c" d="M3.865,4.031C3.865,1.369,5.538-.3,8.494-.3a4.493,4.493,0,0,1,4.392,4.328ZM22.819,9.065C22.958.036,17.375-6.321,8.116-6.321.093-6.321-6.061-1.1-6.061,7.065c0,8.363,6.205,12.923,14.221,12.923,5.828,0,12.128-2.041,13.845-8.216h-9.5a3.96,3.96,0,0,1-3.722,2.185A4.81,4.81,0,0,1,3.865,9.065Z" transform="translate(6.061 6.321)"/></g><g transform="translate(194.288 1.572)"><path class="c" d="M7.064,9.949H5.487c-2.766,0-3.1-.807-3.1-3.089V-2.16H7.152v-5.7H2.384V-15.6H-7.4v7.74h-3.675v5.7h3.536v10.4c0,8.6,1.575,9.5,14.606,8.793Z" transform="translate(11.078 15.602)"/></g><g transform="translate(214.425 8.602)"><path class="c" d="M11.318,9.969v-.48C10.026,8.444,9.984,7.73,9.984,6.307V-5.328c0-5.936-.721-10.306-12.556-10.306-9.887,0-13.658,3.084-13.658,8.359h9.549C-6.444-9.413-4.58-9.7-3.2-9.7-2.145-9.7.05-9.46.05-7.655c0,4.649-17.8-.477-17.8,10.83,0,5.18,4.2,7.5,8.917,7.5,3.726,0,6.587-.757,9.405-3.37l.483,2.664Zm-15.661-4.9C-6.3,5.071-7.5,4.223-7.5,2.983-7.5-.245-3.2.508.05-1.059c.237,3.428-.909,6.13-4.392,6.13" transform="translate(17.75 15.634)"/></g></g><path class="c" d="M150.487.034h9.931v-34.2h-9.931Z" transform="translate(95.959)"/><g class="b" transform="translate(0 -34.17)"><g transform="translate(270.479 8.603)"><path class="c" d="M0,6.952c.526,6.7,6.826,8.455,12.556,8.455,9.166,0,13.463-3.516,13.463-8.688,0-9.313-15.8-6.986-15.8-10.452,0-1.235,1.105-1.759,2.815-1.759a3.135,3.135,0,0,1,2,.616,2.593,2.593,0,0,1,.96,1.806h9.02c-.57-6.6-6.97-7.833-12.41-7.833C7.4-10.9.766-9.055.766-2.688c0,9.639,15.327,6.457,15.327,10.45,0,1.757-1.626,2.23-3.152,2.23a4.02,4.02,0,0,1-2.438-.76A2.75,2.75,0,0,1,9.451,6.952Z" transform="translate(0 10.902)"/></g><g transform="translate(297.675 8.602)"><path class="c" d="M11.32,9.969v-.48C10.031,8.444,9.986,7.73,9.986,6.307V-5.328c0-5.936-.721-10.306-12.553-10.306-9.882,0-13.656,3.084-13.656,8.359h9.552C-6.434-9.413-4.576-9.7-3.191-9.7c1.05,0,3.244.239,3.244,2.044,0,4.649-17.806-.477-17.806,10.83,0,5.18,4.2,7.5,8.932,7.5,3.722,0,6.583-.757,9.4-3.37l.481,2.664Zm-15.656-4.9c-1.962,0-3.156-.848-3.156-2.088,0-3.228,4.3-2.474,7.545-4.042.241,3.428-.9,6.13-4.389,6.13" transform="translate(17.753 15.634)"/></g></g><path class="c" d="M201.326.034h9.932v-34.2h-9.932Z" transform="translate(128.376)"/><g class="b" transform="translate(0 -34.17)"><g transform="translate(342.043 8.604)"><path class="c" d="M3.867,4.031C3.867,1.369,5.538-.3,8.5-.3a4.494,4.494,0,0,1,4.394,4.328ZM22.82,9.065C22.961.036,17.375-6.321,8.114-6.321.1-6.321-6.065-1.1-6.065,7.065c0,8.363,6.208,12.923,14.225,12.923,5.828,0,12.127-2.041,13.843-8.216h-9.5A3.968,3.968,0,0,1,8.78,13.956,4.809,4.809,0,0,1,3.867,9.065Z" transform="translate(6.065 6.321)"/></g><g transform="translate(372.399 8.603)"><path class="c" d="M0,6.952c.529,6.7,6.829,8.455,12.559,8.455,9.168,0,13.458-3.516,13.458-8.688,0-9.313-15.8-6.986-15.8-10.452,0-1.235,1.1-1.759,2.817-1.759a3.156,3.156,0,0,1,2,.616A2.616,2.616,0,0,1,16-3.069h9.02c-.573-6.6-6.971-7.833-12.41-7.833C7.4-10.9.766-9.055.766-2.688.766,6.952,16.09,3.77,16.09,7.762c0,1.757-1.625,2.23-3.149,2.23a4.036,4.036,0,0,1-2.44-.76A2.75,2.75,0,0,1,9.456,6.952Z" transform="translate(0 10.902)"/></g></g><g transform="translate(392.351 -34.163)"><path class="c" d="M0,0V.819H1.716V5.424h.95V.819H4.389V0Z"/></g><g transform="translate(397.404 -34.163)"><path class="c" d="M1.676,0,.219,4.246H.2L-1.293,0H-2.629V5.424h.9V1.238h.016L-.205,5.424H.576L2.081,1.238H2.1V5.424H3V0Z" transform="translate(2.629)"/></g></g></svg>